<svg width="200" height="200" xmlns="http://www.w3.org/2000/svg"><circle cx="100" cy="100" r="93" fill="none" stroke="#000" stroke-width="7"/><path stroke="#000" stroke-width="7" d="m70 150 10-70M70 150 40 75M80 80l80-10M40 75l70-45M110 30l10 80M130 155l30-85M120 110l-50 40M130 155 80 80M160 70l-50-40"/><circle cx="70" cy="150" r="14" fill="#fff" stroke-width="7" stroke="#000"/><path stroke="#000" stroke-width="7" d="M56 150h28"/><circle cx="80" cy="80" r="14" fill="#fff" stroke-width="7" stroke="#000"/><path stroke="#000" stroke-width="7" d="M80 66v28"/><circle cx="40" cy="75" r="14" fill="#fff" stroke-width="7" stroke="gray"/><circle cx="110" cy="30" r="14" fill="#fff" stroke-width="7" stroke="#000"/><circle cx="130" cy="155" r="14" fill="#fff" stroke-width="7" stroke="#000"/><path stroke="#000" stroke-width="7" d="M130 141v28"/><circle cx="160" cy="70" r="14" fill="#fff" stroke-width="7" stroke="gray"/><circle cx="120" cy="110" r="14" fill="#fff" stroke-width="7" stroke="#000"/><path stroke="#000" stroke-width="7" d="M106 110h28"/></svg>